<svg xmlns="http://www.w3.org/2000/svg" width="22.375" height="18.88" viewBox="0 0 22.375 18.88">
  <metadata><?xpacket begin="﻿" id="W5M0MpCehiHzreSzNTczkc9d"?>
<x:xmpmeta xmlns:x="adobe:ns:meta/" x:xmptk="Adobe XMP Core 5.6-c138 79.159824, 2016/09/14-01:09:01        ">
   <rdf:RDF xmlns:rdf="http://www.w3.org/1999/02/22-rdf-syntax-ns#">
      <rdf:Description rdf:about=""/>
   </rdf:RDF>
</x:xmpmeta>
                                                                                                    
                                                                                                    
                                                                                                    
                                                                                                    
                                                                                                    
                                                                                                    
                                                                                                    
                                                                                                    
                                                                                                    
                                                                                                    
                                                                                                    
                                                                                                    
                                                                                                    
                                                                                                    
                                                                                                    
                                                                                                    
                                                                                                    
                                                                                                    
                                                                                                    
                                                                                                    
                           
<?xpacket end="w"?></metadata>
<defs>
    <style>
      .cls-1 {
        fill: #8a98a0;
        fill-rule: evenodd;
      }
    </style>
  </defs>
  <path id="Camera_copy" data-name="Camera copy" class="cls-1" d="M254.8,1662.95H235.2a1.4,1.4,0,0,1-1.4-1.4v-11.2a1.526,1.526,0,0,1,1.4-1.4s1.205-.31,3.01-0.63l1.19-3.22a1.417,1.417,0,0,1,1.4-1.05h8.4a1.334,1.334,0,0,1,1.4,1.05l1.174,3.18c1.838,0.33,3.07.67,3.07,0.67a1.488,1.488,0,0,1,1.356,1.4v11.2A1.4,1.4,0,0,1,254.8,1662.95Zm-0.011-11.41a1.218,1.218,0,0,0-1.122-1.12s-1.228-.3-2.942-0.59l-1.277-3.46a1.084,1.084,0,0,0-1.134-.85h-6.628a1.156,1.156,0,0,0-1.134.85l-1.286,3.48c-1.716.29-2.933,0.57-2.933,0.57a1.222,1.222,0,0,0-1.123,1.12v8.89a1.121,1.121,0,0,0,1.123,1.12h17.334a1.12,1.12,0,0,0,1.122-1.12v-8.89ZM245,1660.21a5.688,5.688,0,0,1-5.626-5.7,5.626,5.626,0,0,1,11.251,0A5.687,5.687,0,0,1,245,1660.21Zm0-10.34a4.646,4.646,0,0,0-4.645,4.65,4.645,4.645,0,1,0,9.29,0A4.647,4.647,0,0,0,245,1649.87Z" transform="translate(-233.813 -1644.06)"/>
</svg>
