<svg xmlns="http://www.w3.org/2000/svg" xmlns:xlink="http://www.w3.org/1999/xlink" width="16" height="16" viewBox="0 0 16 16">
  <metadata><?xpacket begin="﻿" id="W5M0MpCehiHzreSzNTczkc9d"?>
<x:xmpmeta xmlns:x="adobe:ns:meta/" x:xmptk="Adobe XMP Core 5.6-c138 79.159824, 2016/09/14-01:09:01        ">
   <rdf:RDF xmlns:rdf="http://www.w3.org/1999/02/22-rdf-syntax-ns#">
      <rdf:Description rdf:about=""/>
   </rdf:RDF>
</x:xmpmeta>
                                                                                                    
                                                                                                    
                                                                                                    
                                                                                                    
                                                                                                    
                                                                                                    
                                                                                                    
                                                                                                    
                                                                                                    
                                                                                                    
                                                                                                    
                                                                                                    
                                                                                                    
                                                                                                    
                                                                                                    
                                                                                                    
                                                                                                    
                                                                                                    
                                                                                                    
                                                                                                    
                           
<?xpacket end="w"?></metadata>
<defs>
    <style>
      .cls-1 {
        fill: #fa0afd;
        fill-rule: evenodd;
        filter: url(#filter);
      }
    </style>
    <filter id="filter" x="1369" y="32" width="16" height="16" filterUnits="userSpaceOnUse">
      <feFlood result="flood" flood-color="#93a6b0"/>
      <feComposite result="composite" operator="in" in2="SourceGraphic"/>
      <feBlend result="blend" in2="SourceGraphic"/>
    </filter>
  </defs>
  <path id="instagram_icon" data-name="instagram icon" class="cls-1" d="M1381.91,32h-9.82A3.1,3.1,0,0,0,1369,35.09v9.816A3.1,3.1,0,0,0,1372.09,48h9.82a3.1,3.1,0,0,0,3.09-3.091V35.09A3.1,3.1,0,0,0,1381.91,32Zm0.88,1.844h0.36v2.712l-2.7.009-0.01-2.712Zm-8.07,4.514a2.8,2.8,0,0,1,4.56,0,2.762,2.762,0,0,1,.54,1.643,2.82,2.82,0,0,1-5.64,0A2.762,2.762,0,0,1,1374.72,38.357Zm8.72,6.55a1.535,1.535,0,0,1-1.53,1.533h-9.82a1.535,1.535,0,0,1-1.53-1.533v-6.55h2.39a4.286,4.286,0,0,0-.33,1.643,4.375,4.375,0,1,0,8.75,0,4.28,4.28,0,0,0-.32-1.643h2.39v6.55Z" transform="translate(-1369 -32)"/>
</svg>
