<svg xmlns="http://www.w3.org/2000/svg" xmlns:xlink="http://www.w3.org/1999/xlink" width="16" height="13" viewBox="0 0 16 13">
  <metadata><?xpacket begin="﻿" id="W5M0MpCehiHzreSzNTczkc9d"?>
<x:xmpmeta xmlns:x="adobe:ns:meta/" x:xmptk="Adobe XMP Core 5.6-c138 79.159824, 2016/09/14-01:09:01        ">
   <rdf:RDF xmlns:rdf="http://www.w3.org/1999/02/22-rdf-syntax-ns#">
      <rdf:Description rdf:about=""/>
   </rdf:RDF>
</x:xmpmeta>
                                                                                                    
                                                                                                    
                                                                                                    
                                                                                                    
                                                                                                    
                                                                                                    
                                                                                                    
                                                                                                    
                                                                                                    
                                                                                                    
                                                                                                    
                                                                                                    
                                                                                                    
                                                                                                    
                                                                                                    
                                                                                                    
                                                                                                    
                                                                                                    
                                                                                                    
                                                                                                    
                           
<?xpacket end="w"?></metadata>
<defs>
    <style>
      .cls-1 {
        fill: #fa0afd;
        fill-rule: evenodd;
        filter: url(#filter);
      }
    </style>
    <filter id="filter" x="1206" y="34" width="16" height="13" filterUnits="userSpaceOnUse">
      <feFlood result="flood" flood-color="#93a6b0"/>
      <feComposite result="composite" operator="in" in2="SourceGraphic"/>
      <feBlend result="blend" in2="SourceGraphic"/>
    </filter>
  </defs>
  <path class="cls-1" d="M1220.36,37.237c0.01,0.14.01,0.281,0.01,0.424A9.335,9.335,0,0,1,1206,45.524a6.962,6.962,0,0,0,.78.045,6.579,6.579,0,0,0,4.08-1.4,3.292,3.292,0,0,1-3.07-2.279,3.438,3.438,0,0,0,.62.058,3.375,3.375,0,0,0,.87-0.115,3.293,3.293,0,0,1-2.64-3.218V38.57a3.307,3.307,0,0,0,1.49.41,3.3,3.3,0,0,1-1.02-4.382,9.325,9.325,0,0,0,6.77,3.429,3.076,3.076,0,0,1-.09-0.748,3.286,3.286,0,0,1,5.68-2.246,6.591,6.591,0,0,0,2.09-.8,3.336,3.336,0,0,1-1.44,1.816,6.58,6.58,0,0,0,1.88-.515A6.705,6.705,0,0,1,1220.36,37.237Z" transform="translate(-1206 -34)"/>
</svg>
