<svg xmlns="http://www.w3.org/2000/svg" xmlns:xlink="http://www.w3.org/1999/xlink" width="16" height="16" viewBox="0 0 16 16">
  <metadata><?xpacket begin="﻿" id="W5M0MpCehiHzreSzNTczkc9d"?>
<x:xmpmeta xmlns:x="adobe:ns:meta/" x:xmptk="Adobe XMP Core 5.6-c138 79.159824, 2016/09/14-01:09:01        ">
   <rdf:RDF xmlns:rdf="http://www.w3.org/1999/02/22-rdf-syntax-ns#">
      <rdf:Description rdf:about=""/>
   </rdf:RDF>
</x:xmpmeta>
                                                                                                    
                                                                                                    
                                                                                                    
                                                                                                    
                                                                                                    
                                                                                                    
                                                                                                    
                                                                                                    
                                                                                                    
                                                                                                    
                                                                                                    
                                                                                                    
                                                                                                    
                                                                                                    
                                                                                                    
                                                                                                    
                                                                                                    
                                                                                                    
                                                                                                    
                                                                                                    
                           
<?xpacket end="w"?></metadata>
<defs>
    <style>
      .cls-1 {
        fill: #fa0afd;
        fill-rule: evenodd;
        filter: url(#filter);
      }
    </style>
    <filter id="filter" x="1239" y="32" width="16" height="16" filterUnits="userSpaceOnUse">
      <feFlood result="flood" flood-color="#93a6b0"/>
      <feComposite result="composite" operator="in" in2="SourceGraphic"/>
      <feBlend result="blend" in2="SourceGraphic"/>
    </filter>
  </defs>
  <path class="cls-1" d="M1255,43.553A4.414,4.414,0,0,1,1250.61,48a4.311,4.311,0,0,1-2.31-.668,7.522,7.522,0,0,1-1.34.126,7.386,7.386,0,0,1-7.35-7.42,6.479,6.479,0,0,1,.1-1.166,4.457,4.457,0,0,1,3.67-6.87,4.313,4.313,0,0,1,2.4.724,6.943,6.943,0,0,1,1.18-.1,7.381,7.381,0,0,1,7.35,7.411,8.38,8.38,0,0,1-.07,1.01A4.474,4.474,0,0,1,1255,43.553Zm-12.53-5.773c-0.2,2.232,2.4,3.366,4.47,3.676,1.45,0.217,3.42.926,2.23,2.3-1.08,1.263-3.15.482-3.69,0.14s-1.15-1.581-2.16-1.514-1.52,1.425-.28,2.614c1.12,1.062,2.34,1.648,4.95,1.509s4.94-2.472,4.03-4.672-3.45-2.44-5.83-3.024c-2.36-.585-1.07-2.644.85-2.611,1.86,0.029,2.81,2.026,3.66,1.923s1.57-1.392.23-2.542a6,6,0,0,0-4.84-1.34A3.8,3.8,0,0,0,1242.47,37.78Z" transform="translate(-1239 -32)"/>
</svg>
