<svg xmlns="http://www.w3.org/2000/svg" xmlns:xlink="http://www.w3.org/1999/xlink" width="16" height="14" viewBox="0 0 16 14">
  <metadata><?xpacket begin="﻿" id="W5M0MpCehiHzreSzNTczkc9d"?>
<x:xmpmeta xmlns:x="adobe:ns:meta/" x:xmptk="Adobe XMP Core 5.6-c138 79.159824, 2016/09/14-01:09:01        ">
   <rdf:RDF xmlns:rdf="http://www.w3.org/1999/02/22-rdf-syntax-ns#">
      <rdf:Description rdf:about=""/>
   </rdf:RDF>
</x:xmpmeta>
                                                                                                    
                                                                                                    
                                                                                                    
                                                                                                    
                                                                                                    
                                                                                                    
                                                                                                    
                                                                                                    
                                                                                                    
                                                                                                    
                                                                                                    
                                                                                                    
                                                                                                    
                                                                                                    
                                                                                                    
                                                                                                    
                                                                                                    
                                                                                                    
                                                                                                    
                                                                                                    
                           
<?xpacket end="w"?></metadata>
<defs>
    <style>
      .cls-1 {
        fill: #fa0afd;
        fill-rule: evenodd;
        filter: url(#filter);
      }
    </style>
    <filter id="filter" x="1272" y="33" width="16" height="14" filterUnits="userSpaceOnUse">
      <feFlood result="flood" flood-color="#93a6b0"/>
      <feComposite result="composite" operator="in" in2="SourceGraphic"/>
      <feBlend result="blend" in2="SourceGraphic"/>
    </filter>
  </defs>
  <path class="cls-1" d="M1285.16,37.386V39.58h-0.72V37.386h-2.13V36.655h2.13V33h0.72v3.656H1288v0.732h-2.84Zm-6.81-3.657a3.232,3.232,0,0,1,1.33,2.595,3.165,3.165,0,0,1-1.16,2.361,1.381,1.381,0,0,0-.79,1.209,2.739,2.739,0,0,0,1.08,1.315,2.962,2.962,0,0,1,1.44,2.746c0,1.526-1.44,3.045-4.04,3.045-2.28,0-4.21-.956-4.21-2.482,0-1.55,1.76-3.048,4.04-3.048,0.25,0,.48-0.012.71-0.012a1.693,1.693,0,0,1-.56-1.179,1.882,1.882,0,0,1,.21-0.812c-0.12.009-.25-0.032-0.38-0.032a3.078,3.078,0,0,1-3.13-3.16A3.631,3.631,0,0,1,1276.47,33h4.11l-0.92.731h-1.31Zm-1.88,8.137c-1.57-.018-2.99.988-2.99,2.2a2.483,2.483,0,0,0,2.72,2.26c2.22,0,2.99-.964,2.99-2.2a2.11,2.11,0,0,0-.05-0.437c-0.17-.7-0.79-1.044-1.64-1.656A3.4,3.4,0,0,0,1276.47,41.867Zm1.73-5.306a2.782,2.782,0,0,0-2.25-2.611c-1.06-.032-1.77,1.062-1.58,2.492s1.19,2.616,2.24,2.648S1278.38,37.991,1278.2,36.561Z" transform="translate(-1272 -33)"/>
</svg>
