<svg xmlns="http://www.w3.org/2000/svg" width="22.406" height="14" viewBox="0 0 22.406 14">
  <metadata><?xpacket begin="﻿" id="W5M0MpCehiHzreSzNTczkc9d"?>
<x:xmpmeta xmlns:x="adobe:ns:meta/" x:xmptk="Adobe XMP Core 5.6-c138 79.159824, 2016/09/14-01:09:01        ">
   <rdf:RDF xmlns:rdf="http://www.w3.org/1999/02/22-rdf-syntax-ns#">
      <rdf:Description rdf:about=""/>
   </rdf:RDF>
</x:xmpmeta>
                                                                                                    
                                                                                                    
                                                                                                    
                                                                                                    
                                                                                                    
                                                                                                    
                                                                                                    
                                                                                                    
                                                                                                    
                                                                                                    
                                                                                                    
                                                                                                    
                                                                                                    
                                                                                                    
                                                                                                    
                                                                                                    
                                                                                                    
                                                                                                    
                                                                                                    
                                                                                                    
                           
<?xpacket end="w"?></metadata>
<defs>
    <style>
      .cls-1 {
        fill: #8a98a0;
        fill-rule: evenodd;
      }
    </style>
  </defs>
  <path id="Video_copy" data-name="Video copy" class="cls-1" d="M254.641,1826.59l-4.74-4.74v3.73a1.4,1.4,0,0,1-1.4,1.4H235.2a1.4,1.4,0,0,1-1.4-1.4v-11.2a1.4,1.4,0,0,1,1.4-1.4h13.3a1.4,1.4,0,0,1,1.4,1.4v3.73l4.74-4.74c0.912-.91,1.565-0.08,1.565.83v11.57C256.206,1826.68,255.467,1827.42,254.641,1826.59Zm-6.14-11.51a0.7,0.7,0,0,0-.7-0.7H235.9a0.7,0.7,0,0,0-.7.7v9.8a0.7,0.7,0,0,0,.7.7h11.9a0.7,0.7,0,0,0,.7-0.7v-9.8Zm6.29,1.58c0-.52-0.468-1-0.992-0.47l-3.792,3.79,3.792,3.79a0.572,0.572,0,0,0,.992-0.47v-6.64Zm-9.79,6.12h-6.3a0.7,0.7,0,0,1-.7-0.7v-4.2a0.7,0.7,0,0,1,.7-0.7H245a0.7,0.7,0,0,1,.7.7v4.2A0.7,0.7,0,0,1,245,1822.78Zm0-4.37a0.529,0.529,0,0,0-.525-0.53h-5.251a0.529,0.529,0,0,0-.525.53v3.15a0.521,0.521,0,0,0,.525.52h5.251a0.521,0.521,0,0,0,.525-0.52v-3.15Z" transform="translate(-233.813 -1812.97)"/>
</svg>
